<svg width="440" height="956" viewBox="0 0 440 956" fill="none" xmlns="http://www.w3.org/2000/svg">
<g clip-path="url(#clip0_48_151)">
<path fill-rule="evenodd" clip-rule="evenodd" d="M0 334.817L18.625 352.819C37.25 369.621 74.5 404.424 111.75 361.22C149 318.015 186.25 277.369 223.5 285.77C260.75 295.371 298 352.819 335.25 369.621C372.5 387.623 409.75 283.211 428.375 231.606L447 180L447 1024H428.375C409.75 1024 372.5 1024 335.25 1024C298 1024 260.75 1024 223.5 1024C186.25 1024 149 1024 111.75 1024C74.5 1024 37.25 1024 18.625 1024L0 1024L0 334.817Z" fill="#DD7C7B"/>
</g>
<defs>
<clipPath id="clip0_48_151">
<rect width="440" height="956" fill="white"/>
</clipPath>
</defs>
</svg>
