<svg width="440" height="956" viewBox="0 0 440 956" fill="none" xmlns="http://www.w3.org/2000/svg">
<g clip-path="url(#clip0_48_150)">
<path d="M260.402 304C205.56 257.351 136.567 243.624 75.7805 286.098C22.8616 323.214 -44.716 481.861 121.099 573.987C272.575 658.355 357.019 556.324 378.458 519.803C399.97 482.959 437.29 352.582 260.402 304Z" fill="#E8A7A7"/>
<path d="M92.7741 294.733C140.429 261.353 193.501 264.944 239.716 292.593C204.053 276.99 165.083 278.015 129.729 302.819C86.9851 332.665 32.4004 461.045 166.309 535.456C288.708 603.419 356.866 521.073 374.117 491.541C385.032 472.802 401.064 424.372 376.109 381.242C409.046 432.522 389.79 491.611 376.726 513.969C356.54 548.323 277.383 643.935 135.259 564.8C-20.3717 478.408 43.0622 329.56 92.7741 294.733Z" fill="#E8A7A7"/>
<path d="M322.909 328.815C313.327 323.523 302.51 318.425 290.575 313.786C273.353 311.721 257.497 312.156 252.065 318.438C252.971 312.27 251.162 303.369 246.884 293.46C240.06 288.532 233.13 284.204 225.967 280.284C232.135 289.781 236.272 299.817 236.694 310.047C219.85 287.643 204.619 277.784 187.298 273.561C178.999 271.42 165.472 266.258 152.652 260.638C149.924 260.646 147.235 260.885 144.391 260.903C157.683 268.904 172.649 276.512 180.266 278.393C194.708 281.972 213.542 296.44 223.661 313.096C202.148 302.805 197.247 307.087 193.31 310.073C185.19 316.227 172.539 309.148 167.185 303.565C162.592 313.917 182.73 324.513 191.956 327.274C214.84 334.123 228.61 314.259 254.516 327.702C257.07 333.407 263.378 345.262 273.828 349.731C296.892 359.596 314.345 364.474 306.112 394.566C316.747 389.085 318.689 379.789 317.653 372.177C316.911 364.487 311.843 361.796 288.205 349.57C313.619 358.416 366.534 372.891 384.262 398.599C382.186 390.467 376.112 383.136 356.355 370.236C336.825 357.311 278.782 336.268 273.446 331.576C284.061 325.527 301.344 323.915 322.909 328.815Z" fill="#E8A7A7"/>
<path d="M274.677 313.991C294.801 320.106 311.762 327.406 325.995 335.557C312.884 328.593 297.293 322.422 278.773 317.366C277.418 316.216 276.053 315.092 274.677 313.991Z" fill="#E8A7A7"/>
<path d="M327.918 411.659C314.775 408.342 305.811 421.781 294.363 443.125C287.072 456.674 266.458 520.66 296.588 528.727C327.909 537.097 350.324 480.994 353.12 470.82C356.058 460.669 361.938 419.726 327.918 411.659Z" fill="#E8A7A7"/>
<path d="M78.4661 339.079C82.4354 342.026 86.2271 340.327 93.1007 335.01C97.4385 331.568 113.639 313.33 104.536 306.45C95.0559 299.57 79.5751 314.849 77.3497 317.597C74.7983 320.73 68.2896 331.773 78.4661 339.079Z" fill="#E8A7A7"/>
<path d="M318.497 438.93C315.291 438.047 313.5 440.046 310.683 445.034C309.038 448.04 304.28 463.17 311.406 465.218C318.76 467.017 323.831 453.748 324.675 451.334C325.213 448.92 326.208 440.911 318.497 438.93Z" fill="#E8A7A7"/>
<path d="M141.895 235.305C154.992 243.181 188.18 252.884 205.718 256.615C223.47 260.315 231.982 267.637 244.911 295.696C246.059 254.917 209.714 245.162 197.643 233.827C247.798 246.321 273.392 264.752 265.778 301.266C276.355 272.853 296.224 246.925 308.177 237.783C309.223 236.984 312.417 241.032 316.138 238.931C320.614 236.404 332.931 245.495 329.45 249.13C304.36 261.092 287.427 289.908 276.721 307.201C288.991 300.303 302.392 296.376 319.829 298.631C349.509 302.47 371.194 338.712 376.232 341.597C332.033 317.355 303.298 311.047 284.692 323.444C289.877 328.242 341.988 324.926 371.119 353.145C387.938 369.438 389.032 379.43 390.709 388.279C361.212 354.156 322.142 344.712 296.266 336.162C296.837 336.494 297.386 336.835 297.937 337.171C319.826 349.603 326.37 367.813 326.545 376.111C327.049 384.446 318.874 396.327 314.401 399.767C324.888 365.615 293.482 355.846 280.351 348.902C270.388 343.514 260.051 333.516 257.878 327.151C240.932 313.038 228.981 322.089 203.67 319.925C192.82 318.999 166.699 299.135 168.832 294.003C173.988 297.532 187 307.444 197.065 301.173C203.981 296.863 209.162 294.598 222.593 297.149C225.208 297.647 228.122 298.375 231.302 299.897C221.8 281.917 201.316 271.274 186.529 268.323C172.242 265.151 149.406 247.408 141.895 235.305C142.013 235.442 141.783 235.124 141.895 235.305Z" fill="#E8A7A7"/>
<path d="M270.595 312.044C278.809 314.154 286.988 323.921 277.364 326.919C267.736 329.914 256.132 321.899 247.478 312.955C238.822 304.009 250.093 301.962 258.534 305.958C266.976 309.955 270.595 312.044 270.595 312.044Z" fill="#E8A7A7"/>
<path d="M268.432 312.666C271.521 313.311 274.38 317.144 270.606 318.659C266.833 320.178 262.609 317.172 259.545 313.695C256.481 310.219 260.857 309.051 263.981 310.474C267.104 311.899 268.432 312.666 268.432 312.666Z" fill="#E8A7A7"/>
<path d="M330.891 249.024C318.979 257.5 286.71 286.032 271.639 315.937C268.581 320.093 260.849 315.629 261.053 312.237C265.197 297.081 284.18 254.979 308.177 237.783C316.711 237.108 330.891 249.024 330.891 249.024Z" fill="#E8A7A7"/>
<path d="M320.002 236.924C317.346 235.972 302.841 235.125 307.191 241.953C312.118 248.565 325.417 252.613 329.474 249.958C335.029 246.474 329.815 240.153 320.002 236.924Z" fill="#E8A7A7"/>
<path d="M301.283 257.373C306.359 251.977 303.147 246.166 295.576 253.201C288.004 260.237 276.655 279.13 273.389 288.211C270.12 297.291 292.191 267.041 301.283 257.373Z" fill="#E8A7A7"/>
<path fill-rule="evenodd" clip-rule="evenodd" d="M-62 323L-38.4583 347C-14.9167 371 32.1667 419 79.25 437C126.333 455 173.417 443 220.5 431C267.583 419 314.667 407 361.75 425C408.833 443 455.917 491 479.458 515L503 539V611H479.458C455.917 611 408.833 611 361.75 611C314.667 611 267.583 611 220.5 611C173.417 611 126.333 611 79.25 611C32.1667 611 -14.9167 611 -38.4583 611H-62V323Z" fill="#E8A7A7"/>
<rect x="-62" y="595" width="565" height="361" fill="#E8A7A7"/>
</g>
<defs>
<clipPath id="clip0_48_150">
<rect width="440" height="956" fill="white"/>
</clipPath>
</defs>
</svg>
