<svg width="1440" height="913" viewBox="0 0 1440 913" fill="none" xmlns="http://www.w3.org/2000/svg">
<path fill-rule="evenodd" clip-rule="evenodd" d="M0 280L60 304C120 328 240 376 360 394C480 412 600 400 720 388C840 376 960 364 1080 382C1200 400 1320 448 1380 472L1440 496V568H1380C1320 568 1200 568 1080 568C960 568 840 568 720 568C600 568 480 568 360 568C240 568 120 568 60 568H0V280Z" fill="#E8A7A7"/>
<rect y="552" width="1440" height="361" fill="#E8A7A7"/>
<path d="M806.809 276.118C715.613 198.546 600.886 175.72 499.806 246.348C411.808 308.069 299.435 571.878 575.165 725.073C827.052 865.367 967.471 695.701 1003.12 634.972C1038.89 573.705 1100.95 356.904 806.809 276.118Z" fill="#E8A7A7"/>
<path d="M528.064 260.708C607.309 205.201 695.56 211.172 772.41 257.15C713.107 231.203 648.306 232.909 589.516 274.154C518.438 323.785 427.67 537.265 650.344 661.001C853.88 774.017 967.218 637.084 995.904 587.977C1014.05 556.815 1040.71 476.282 999.217 404.562C1053.99 489.834 1021.97 588.092 1000.24 625.271C966.675 682.397 835.047 841.389 598.711 709.797C339.916 566.138 445.399 318.621 528.064 260.708Z" fill="#E8A7A7"/>
<path d="M910.75 317.382C894.817 308.583 876.83 300.105 856.983 292.391C828.346 288.957 801.979 289.681 792.947 300.127C794.452 289.87 791.445 275.07 784.33 258.592C772.982 250.397 761.459 243.199 749.547 236.682C759.804 252.473 766.683 269.162 767.386 286.174C739.376 248.918 714.048 232.525 685.246 225.502C671.445 221.941 648.951 213.358 627.635 204.012C623.098 204.025 618.626 204.423 613.897 204.452C636 217.758 660.887 230.408 673.552 233.537C697.568 239.488 728.886 263.547 745.713 291.243C709.94 274.131 701.79 281.251 695.243 286.216C681.741 296.451 660.704 284.678 651.801 275.394C644.163 292.609 677.65 310.229 692.991 314.82C731.045 326.208 753.943 293.178 797.021 315.531C801.268 325.018 811.757 344.732 829.135 352.164C867.488 368.568 896.509 376.679 882.819 426.719C900.504 417.604 903.734 402.146 902.011 389.488C900.777 376.7 892.349 372.225 853.041 351.895C895.303 366.606 983.293 390.676 1012.77 433.425C1009.32 419.902 999.222 407.712 966.367 386.26C933.892 364.768 837.372 329.775 828.5 321.973C846.151 311.914 874.891 309.233 910.75 317.382Z" fill="#E8A7A7"/>
<path d="M830.547 292.732C864.011 302.899 892.214 315.039 915.883 328.594C894.08 317.013 868.155 306.751 837.358 298.343C835.104 296.431 832.835 294.563 830.547 292.732Z" fill="#E8A7A7"/>
<path d="M919.08 455.142C897.226 449.626 882.319 471.974 863.282 507.466C851.158 529.996 816.879 636.398 866.982 649.812C919.066 663.729 956.339 570.438 960.988 553.519C965.873 536.639 975.651 468.556 919.08 455.142Z" fill="#E8A7A7"/>
<path d="M504.272 334.449C510.872 339.35 517.177 336.526 528.607 327.684C535.82 321.961 562.759 291.633 547.623 280.191C531.858 268.752 506.116 294.159 502.415 298.728C498.172 303.938 487.349 322.302 504.272 334.449Z" fill="#E8A7A7"/>
<path d="M903.414 500.49C898.083 499.021 895.105 502.346 890.421 510.641C887.684 515.64 879.772 540.799 891.622 544.204C903.851 547.196 912.284 525.131 913.687 521.117C914.581 517.102 916.237 503.785 903.414 500.49Z" fill="#E8A7A7"/>
<path d="M609.747 161.887C631.525 174.984 686.712 191.119 715.876 197.322C745.395 203.476 759.549 215.651 781.05 262.309C782.958 194.499 722.52 178.277 702.448 159.428C785.85 180.204 828.41 210.853 815.748 271.572C833.337 224.324 866.376 181.21 886.253 166.008C887.992 164.678 893.303 171.409 899.49 167.916C906.934 163.715 927.416 178.831 921.628 184.876C879.906 204.766 851.748 252.685 833.946 281.441C854.349 269.971 876.633 263.44 905.628 267.19C954.983 273.573 991.042 333.84 999.421 338.638C925.923 298.326 878.139 287.836 847.201 308.451C855.821 316.43 942.476 310.915 990.918 357.84C1018.89 384.934 1020.7 401.549 1023.49 416.263C974.444 359.522 909.475 343.817 866.446 329.599C867.396 330.152 868.309 330.718 869.225 331.278C905.623 351.95 916.506 382.231 916.796 396.03C917.635 409.89 904.041 429.647 896.603 435.367C914.042 378.576 861.816 362.331 839.981 350.784C823.415 341.826 806.226 325.2 802.612 314.615C774.432 291.148 754.559 306.198 712.469 302.599C694.428 301.06 650.993 268.028 654.539 259.495C663.113 265.363 684.75 281.845 701.487 271.417C712.987 264.25 721.602 260.484 743.937 264.726C748.285 265.553 753.131 266.765 758.42 269.295C742.619 239.396 708.557 221.699 683.966 216.791C660.209 211.517 622.235 182.012 609.747 161.887C609.942 162.114 609.56 161.586 609.747 161.887Z" fill="#E8A7A7"/>
<path d="M823.759 289.495C837.417 293.003 851.018 309.245 835.014 314.229C819.004 319.21 799.709 305.882 785.318 291.008C770.924 276.133 789.667 272.729 803.702 279.374C817.741 286.02 823.759 289.495 823.759 289.495Z" fill="#E8A7A7"/>
<path d="M820.162 290.529C825.299 291.601 830.052 297.974 823.776 300.495C817.502 303.02 810.479 298.02 805.384 292.24C800.289 286.459 807.566 284.518 812.761 286.884C817.953 289.254 820.162 290.529 820.162 290.529Z" fill="#E8A7A7"/>
<path d="M924.024 184.699C904.215 198.793 850.557 246.24 825.494 295.967C820.41 302.879 807.553 295.456 807.891 289.816C814.783 264.612 846.349 194.602 886.253 166.008C900.445 164.885 924.024 184.699 924.024 184.699Z" fill="#E8A7A7"/>
<path d="M905.917 164.578C901.501 162.995 877.38 161.588 884.615 172.941C892.807 183.937 914.922 190.668 921.668 186.252C930.905 180.459 922.236 169.948 905.917 164.578Z" fill="#E8A7A7"/>
<path d="M874.789 198.582C883.23 189.609 877.889 179.947 865.3 191.644C852.708 203.345 833.836 234.762 828.404 249.863C822.97 264.962 859.671 214.66 874.789 198.582Z" fill="#E8A7A7"/>
</svg>
